{
  "accessors": [
    {
      "bufferView": 2,
      "componentType": 5126,
      "count": 1652,
      "max": [
        1.4556548595428467,
        1.4556547403335571,
        2.13696026802063
      ],
      "min": [
        -1.4556547403335571,
        -1.4556546211242676,
        -2.15342378616333
      ],
      "type": "VEC3"
    },
    {
      "bufferView": 2,
      "byteOffset": 19824,
      "componentType": 5126,
      "count": 1652,
      "max": [
        1.0,
        1.0,
        0.9999402761459351
      ],
      "min": [
        -1.0,
        -1.0,
        -0.9999286532402039
      ],
      "type": "VEC3"
    },
    {
      "bufferView": 3,
      "componentType": 5126,
      "count": 1652,
      "max": [
        1.0,
        1.0,
        0.8201385140419006,
        1.0
      ],
      "min": [
        -1.0,
        -1.0,
        -1.0,
        1.0
      ],
      "type": "VEC4"
    },
    {
      "bufferView": 1,
      "componentType": 5126,
      "count": 1652,
      "max": [
        0.8520689010620117,
        0.9945287704467773
      ],
      "min": [
        0.006311403587460518,
        0.006569787859916687
      ],
      "type": "VEC2"
    },
    {
      "bufferView": 1,
      "byteOffset": 13216,
      "componentType": 5126,
      "count": 1652,
      "max": [
        0.8520689010620117,
        0.9945287704467773
      ],
      "min": [
        0.006311403587460518,
        0.006569787859916687
      ],
      "type": "VEC2"
    },
    {
      "bufferView": 1,
      "byteOffset": 26432,
      "componentType": 5126,
      "count": 1652,
      "max": [
        0.8520689010620117,
        0.9945287704467773
      ],
      "min": [
        0.006311403587460518,
        0.006569787859916687
      ],
      "type": "VEC2"
    },
    {
      "bufferView": 0,
      "componentType": 5125,
      "count": 5748,
      "type": "SCALAR"
    },
    {
      "bufferView": 2,
      "byteOffset": 39648,
      "componentType": 5126,
      "count": 1252,
      "max": [
        1.4204400777816772,
        1.4204401969909668,
        0.03378725051879883
      ],
      "min": [
        -1.4204401969909668,
        -1.4204401969909668,
        -0.03378748893737793
      ],
      "type": "VEC3"
    },
    {
      "bufferView": 2,
      "byteOffset": 54672,
      "componentType": 5126,
      "count": 1252,
      "max": [
        0.9999973773956299,
        0.9999973773956299,
        0.9964075088500977
      ],
      "min": [
        -0.9999973773956299,
        -0.9999973177909851,
        -1.0
      ],
      "type": "VEC3"
    },
    {
      "bufferView": 3,
      "byteOffset": 26432,
      "componentType": 5126,
      "count": 1252,
      "max": [
        0.0031925546936690807,
        0.0841081514954567,
        0.4746786653995514,
        1.0
      ],
      "min": [
        -0.9979063272476196,
        -0.0032048102002590895,
        -0.9999973773956299,
        -1.0
      ],
      "type": "VEC4"
    },
    {
      "bufferView": 1,
      "byteOffset": 39648,
      "componentType": 5126,
      "count": 1252,
      "max": [
        0.9939387440681458,
        0.999500036239624
      ],
      "min": [
        0.0005000000237487257,
        0.0005000000237487257
      ],
      "type": "VEC2"
    },
    {
      "bufferView": 1,
      "byteOffset": 49664,
      "componentType": 5126,
      "count": 1252,
      "max": [
        0.9939387440681458,
        0.999500036239624
      ],
      "min": [
        0.0005000000237487257,
        0.0005000000237487257
      ],
      "type": "VEC2"
    },
    {
      "bufferView": 1,
      "byteOffset": 59680,
      "componentType": 5126,
      "count": 1252,
      "max": [
        0.9939387440681458,
        0.999500036239624
      ],
      "min": [
        0.0005000000237487257,
        0.0005000000237487257
      ],
      "type": "VEC2"
    },
    {
      "bufferView": 0,
      "byteOffset": 22992,
      "componentType": 5125,
      "count": 2868,
      "type": "SCALAR"
    }
  ],
  "asset": {
    "extras": {
      "author": "plaggy (https://sketchfab.com/plaggy)",
      "license": "CC-BY-4.0 (http://creativecommons.org/licenses/by/4.0/)",
      "source": "https://sketchfab.com/3d-models/tin-can-4-open-7bf06cbf14ec43d8bc9f957ae8189561",
      "title": "Tin Can 4 Open"
    },
    "generator": "Sketchfab-15.22.0",
    "version": "2.0"
  },
  "bufferViews": [
    {
      "buffer": 0,
      "byteLength": 34464,
      "name": "floatBufferViews",
      "target": 34963
    },
    {
      "buffer": 0,
      "byteLength": 69696,
      "byteOffset": 34464,
      "byteStride": 8,
      "name": "floatBufferViews",
      "target": 34962
    },
    {
      "buffer": 0,
      "byteLength": 69696,
      "byteOffset": 104160,
      "byteStride": 12,
      "name": "floatBufferViews",
      "target": 34962
    },
    {
      "buffer": 0,
      "byteLength": 46464,
      "byteOffset": 173856,
      "byteStride": 16,
      "name": "floatBufferViews",
      "target": 34962
    }
  ],
  "buffers": [
    {
      "byteLength": 220320,
      "uri": "scene.bin"
    }
  ],
  "images": [
    {
      "uri": "textures/TinCan4Open_baseColor.png"
    },
    {
      "uri": "textures/TinCan4Open_metallicRoughness.png"
    },
    {
      "uri": "textures/TinCan4Open_normal.png"
    },
    {
      "uri": "textures/TinCanOpenTop_baseColor.png"
    },
    {
      "uri": "textures/TinCanOpenTop_metallicRoughness.png"
    },
    {
      "uri": "textures/TinCanOpenTop_normal.png"
    }
  ],
  "materials": [
    {
      "name": "TinCan4Open",
      "normalTexture": {
        "index": 2
      },
      "occlusionTexture": {
        "index": 1
      },
      "pbrMetallicRoughness": {
        "baseColorTexture": {
          "index": 0
        },
        "metallicRoughnessTexture": {
          "index": 1
        }
      }
    },
    {
      "name": "TinCanOpenTop",
      "normalTexture": {
        "index": 5
      },
      "occlusionTexture": {
        "index": 4
      },
      "pbrMetallicRoughness": {
        "baseColorTexture": {
          "index": 3
        },
        "metallicRoughnessTexture": {
          "index": 4
        }
      }
    }
  ],
  "meshes": [
    {
      "name": "TinCan4Open_TinCan4Open_0",
      "primitives": [
        {
          "attributes": {
            "NORMAL": 1,
            "POSITION": 0,
            "TANGENT": 2,
            "TEXCOORD_0": 3,
            "TEXCOORD_1": 4,
            "TEXCOORD_2": 5
          },
          "indices": 6,
          "material": 0,
          "mode": 4
        }
      ]
    },
    {
      "name": "TinCan4Top_TinCanOpenTop_0",
      "primitives": [
        {
          "attributes": {
            "NORMAL": 8,
            "POSITION": 7,
            "TANGENT": 9,
            "TEXCOORD_0": 10,
            "TEXCOORD_1": 11,
            "TEXCOORD_2": 12
          },
          "indices": 13,
          "material": 1,
          "mode": 4
        }
      ]
    }
  ],
  "nodes": [
    {
      "children": [
        1
      ],
      "matrix": [
        1.0,
        0.0,
        0.0,
        0.0,
        0.0,
        2.220446049250313e-16,
        -1.0,
        0.0,
        0.0,
        1.0,
        2.220446049250313e-16,
        0.0,
        0.0,
        0.0,
        0.0,
        1.0
      ],
      "name": "Sketchfab_model"
    },
    {
      "children": [
        2
      ],
      "matrix": [
        0.02539999969303608,
        0.0,
        0.0,
        0.0,
        0.0,
        0.0,
        0.02539999969303608,
        0.0,
        0.0,
        -0.02539999969303608,
        0.0,
        0.0,
        0.0,
        0.0,
        0.0,
        1.0
      ],
      "name": "35ca3efbea2b4c38bb37ccd2a8b6ed36.fbx"
    },
    {
      "children": [
        3,
        5
      ],
      "name": "RootNode"
    },
    {
      "children": [
        4
      ],
      "matrix": [
        1.0,
        0.0,
        0.0,
        0.0,
        0.0,
        2.220446049250313e-16,
        -1.0,
        0.0,
        0.0,
        1.0,
        2.220446049250313e-16,
        0.0,
        0.0,
        1.1920928955078125e-07,
        0.0,
        1.0
      ],
      "name": "TinCan4Open"
    },
    {
      "mesh": 0,
      "name": "TinCan4Open_TinCan4Open_0"
    },
    {
      "children": [
        6
      ],
      "matrix": [
        0.4226182326927719,
        -0.9063078005819205,
        -1.1102230246251565e-16,
        0.0,
        1.1102230246251565e-16,
        0.0,
        -1.0,
        0.0,
        0.9063078005819205,
        0.422618232692772,
        0.0,
        0.0,
        2.04158878326416,
        -0.8614418506622314,
        2.1949819739575105e-08,
        1.0
      ],
      "name": "TinCan4Top"
    },
    {
      "mesh": 1,
      "name": "TinCan4Top_TinCanOpenTop_0"
    }
  ],
  "samplers": [
    {
      "magFilter": 9729,
      "minFilter": 9987,
      "wrapS": 10497,
      "wrapT": 10497
    }
  ],
  "scene": 0,
  "scenes": [
    {
      "name": "Sketchfab_Scene",
      "nodes": [
        0
      ]
    }
  ],
  "textures": [
    {
      "sampler": 0,
      "source": 0
    },
    {
      "sampler": 0,
      "source": 1
    },
    {
      "sampler": 0,
      "source": 2
    },
    {
      "sampler": 0,
      "source": 3
    },
    {
      "sampler": 0,
      "source": 4
    },
    {
      "sampler": 0,
      "source": 5
    }
  ]
}
